<svg viewBox="0 0 300 300" xmlns="http://www.w3.org/2000/svg">
<g>
<path d="M73,60 L73,49 L17,72 L95,41 z" fill="none" stroke="black" stroke-width="1"/>
<path d="M198,1 L120,84 L110,31 L154,36 z" fill="none" stroke="black" stroke-width="1"/>
<path d="M215,20 L225,51 L220,29 L284,38 z" fill="none" stroke="black" stroke-width="1"/>
<path d="M53,147 L98,105 L88,198 L37,161 z" fill="none" stroke="black" stroke-width="1"/>
<path d="M119,160 L189,103 L102,189 L173,195 z" fill="none" stroke="black" stroke-width="1"/>
<path d="M296,151 L276,182 L278,167 L218,130 z" fill="none" stroke="black" stroke-width="1"/>
<path d="M58,259 L23,243 L69,258 L85,295 z" fill="none" stroke="black" stroke-width="1"/>
<path d="M152,258 L130,208 L142,292 L106,235 z" fill="none" stroke="black" stroke-width="1"/>
<path d="M264,208 L256,296 L298,298 L252,257 z" fill="none" stroke="black" stroke-width="1"/>
</g>
<g>
<path d="M89,38 L97,1 L49,94 L79,29 z" fill="none" stroke="black" stroke-width="1"/>
<path d="M151,45 L153,6 L169,90 L195,4 z" fill="none" stroke="black" stroke-width="1"/>
<path d="M247,6 L219,70 L222,68 L220,41 z" fill="none" stroke="black" stroke-width="1"/>
<path d="M64,146 L53,150 L17,130 L97,194 z" fill="none" stroke="black" stroke-width="1"/>
<path d="M115,157 L199,191 L136,169 L123,198 z" fill="none" stroke="black" stroke-width="1"/>
<path d="M238,169 L265,193 L286,121 L235,149 z" fill="none" stroke="black" stroke-width="1"/>
<path d="M23,278 L40,256 L68,241 L73,257 z" fill="none" stroke="black" stroke-width="1"/>
<path d="M184,251 L191,231 L135,293 L135,258 z" fill="none" stroke="black" stroke-width="1"/>
<path d="M222,292 L222,298 L252,269 L234,244 z" fill="none" stroke="black" stroke-width="1"/>
</g>
</svg>